<svg xmlns="http://www.w3.org/2000/svg" xmlns:xlink="http://www.w3.org/1999/xlink" width="1341" height="1247.108" viewBox="0 0 1341 1247.108"><defs><linearGradient id="a" x1="-3249.149" y1="1756.526" x2="1427.18" y2="-770.08" gradientUnits="objectBoundingBox"><stop offset="0" stop-color="#e6e6e6"/><stop offset="0.132" stop-color="#dcdcdc"/><stop offset="0.35" stop-color="#c3c3c3"/><stop offset="0.467" stop-color="#b3b3b3"/><stop offset="0.77" stop-color="#bce353"/><stop offset="0.994" stop-color="#ecf7ce"/></linearGradient><linearGradient id="b" x1="-637.987" y1="337.323" x2="250.557" y2="-131.759" xlink:href="#a"/><linearGradient id="c" x1="-373.943" y1="197.383" x2="184.616" y2="-96.68" xlink:href="#a"/><linearGradient id="d" x1="-163.36" y1="86.752" x2="67.984" y2="-34.669" xlink:href="#a"/><linearGradient id="e" x1="-1635.638" y1="856.884" x2="452.995" y2="-236.664" xlink:href="#a"/><linearGradient id="f" x1="-127.004" y1="67.651" x2="67.948" y2="-34.64" xlink:href="#a"/><linearGradient id="g" x1="-100.048" y1="53.08" x2="48.251" y2="-24.839" xlink:href="#a"/><linearGradient id="h" x1="-128.815" y1="68.014" x2="46.918" y2="-24.074" xlink:href="#a"/><linearGradient id="i" x1="-206.014" y1="109.129" x2="61.615" y2="-31.322" xlink:href="#a"/><linearGradient id="j" x1="-1239.208" y1="652.889" x2="606.063" y2="-317.805" xlink:href="#a"/><linearGradient id="k" x1="-118.945" y1="63.415" x2="71.79" y2="-36.652" xlink:href="#a"/><linearGradient id="l" x1="-82.041" y1="43.588" x2="49.324" y2="-25.385" xlink:href="#a"/><linearGradient id="m" x1="-56.078" y1="30.427" x2="29.656" y2="-14.543" xlink:href="#a"/><linearGradient id="n" x1="-49.963" y1="26.727" x2="22.9" y2="-11.503" xlink:href="#a"/><linearGradient id="o" x1="-68.826" y1="37.144" x2="26.961" y2="-13.141" xlink:href="#a"/><linearGradient id="p" x1="-129.023" y1="68.136" x2="31.742" y2="-16.125" xlink:href="#a"/><linearGradient id="q" x1="-182.562" y1="96.863" x2="33.626" y2="-16.642" xlink:href="#a"/><linearGradient id="r" x1="-1204.125" y1="629.769" x2="201.17" y2="-104.619" xlink:href="#a"/><linearGradient id="s" x1="-416.316" y1="219.002" x2="218.712" y2="-114.271" xlink:href="#a"/><linearGradient id="t" x1="-88.819" y1="47.086" x2="59.48" y2="-30.677" xlink:href="#a"/><linearGradient id="u" x1="-46.798" y1="25.579" x2="32.053" y2="-15.814" xlink:href="#a"/><linearGradient id="v" x1="-40.561" y1="21.795" x2="24.717" y2="-12.457" xlink:href="#a"/><linearGradient id="w" x1="-34.107" y1="18.909" x2="16.351" y2="-7.568" xlink:href="#a"/><linearGradient id="x" x1="-59.548" y1="31.742" x2="18.859" y2="-9.378" xlink:href="#a"/><linearGradient id="y" x1="-75.471" y1="40.584" x2="19.952" y2="-9.45" xlink:href="#a"/><linearGradient id="z" x1="-113.206" y1="59.985" x2="15.138" y2="-7.44" xlink:href="#a"/><linearGradient id="aa" x1="-3981.416" y1="2028.921" x2="3981.948" y2="-2027.181" xlink:href="#a"/><linearGradient id="ab" x1="-49.365" y1="26.917" x2="40.143" y2="-20.054" xlink:href="#a"/><linearGradient id="ac" x1="-37.775" y1="20.337" x2="29.731" y2="-15.09" xlink:href="#a"/><linearGradient id="ad" x1="-29.003" y1="16.235" x2="19.436" y2="-9.189" xlink:href="#a"/><linearGradient id="ae" x1="-28.489" y1="15.46" x2="15.372" y2="-7.553" xlink:href="#a"/><linearGradient id="af" x1="-33.001" y1="17.823" x2="11.804" y2="-5.68" xlink:href="#a"/><linearGradient id="ag" x1="-40.367" y1="22.191" x2="12.74" y2="-5.672" xlink:href="#a"/><linearGradient id="ah" x1="-59.526" y1="31.761" x2="11.989" y2="-5.781" xlink:href="#a"/><linearGradient id="ai" x1="-65.778" y1="35.533" x2="10.366" y2="-4.427" xlink:href="#a"/><linearGradient id="aj" x1="-133.912" y1="71.399" x2="10.475" y2="-4.493" xlink:href="#a"/><linearGradient id="ak" x1="-413.709" y1="217.328" x2="28.343" y2="-14.341" xlink:href="#a"/><linearGradient id="al" x1="-623.461" y1="327.5" x2="356.303" y2="-186.356" xlink:href="#a"/><linearGradient id="am" x1="-148.145" y1="78.908" x2="97.619" y2="-50.315" xlink:href="#a"/><linearGradient id="an" x1="-58.587" y1="31.733" x2="55.093" y2="-27.876" xlink:href="#a"/><linearGradient id="ao" x1="-43.154" y1="23.149" x2="40.585" y2="-20.777" xlink:href="#a"/><linearGradient id="ap" x1="-26.912" y1="15.128" x2="24.079" y2="-11.618" xlink:href="#a"/><linearGradient id="aq" x1="-25.121" y1="13.695" x2="18.827" y2="-9.368" xlink:href="#a"/><linearGradient id="ar" x1="-23.97" y1="13.589" x2="12.527" y2="-5.56" xlink:href="#a"/><linearGradient id="as" x1="-24.901" y1="13.577" x2="9.234" y2="-4.332" xlink:href="#a"/><linearGradient id="at" x1="-27.477" y1="15.427" x2="9.275" y2="-3.853" xlink:href="#a"/><linearGradient id="au" x1="-37.121" y1="19.984" x2="8.218" y2="-3.798" xlink:href="#a"/><linearGradient id="av" x1="-41.864" y1="22.981" x2="8.419" y2="-3.406" xlink:href="#a"/><linearGradient id="aw" x1="-49.347" y1="26.391" x2="5.139" y2="-2.183" xlink:href="#a"/><linearGradient id="ax" x1="-52.834" y1="28.736" x2="2.828" y2="-0.471" xlink:href="#a"/><linearGradient id="ay" x1="-81.696" y1="43.361" x2="2.36" y2="-0.725" xlink:href="#a"/><linearGradient id="az" x1="-573.96" y1="302.974" x2="13.886" y2="-6.293" xlink:href="#a"/><linearGradient id="ba" x1="-109.39" y1="57.915" x2="83.901" y2="-43.515" xlink:href="#a"/><linearGradient id="bb" x1="-50.047" y1="26.76" x2="57.035" y2="-29.4" xlink:href="#a"/><linearGradient id="bc" x1="-27.861" y1="15.63" x2="31.989" y2="-15.771" xlink:href="#a"/><linearGradient id="bd" x1="-24.225" y1="13.225" x2="24.376" y2="-12.279" xlink:href="#a"/><linearGradient id="be" x1="-21.329" y1="12.206" x2="15.923" y2="-7.344" xlink:href="#a"/><linearGradient id="bf" x1="-22.053" y1="12.088" x2="12.311" y2="-5.95" xlink:href="#a"/><linearGradient id="bg" x1="-22.942" y1="13.05" x2="8.29" y2="-3.337" xlink:href="#a"/><linearGradient id="bh" x1="-27.584" y1="14.986" x2="6.245" y2="-2.764" xlink:href="#a"/><linearGradient id="bi" x1="-29.614" y1="16.549" x2="6.111" y2="-2.194" xlink:href="#a"/><linearGradient id="bj" x1="-35.541" y1="19.156" x2="4.787" y2="-1.999" xlink:href="#a"/><linearGradient id="bk" x1="-37.058" y1="20.46" x2="4.517" y2="-1.358" xlink:href="#a"/><linearGradient id="bl" x1="-40.746" y1="21.896" x2="0.059" y2="0.481" xlink:href="#a"/><linearGradient id="bm" x1="-90.284" y1="48.354" x2="-1.334" y2="1.712" xlink:href="#a"/><linearGradient id="bn" x1="-179.632" y1="94.714" x2="-3.496" y2="2.346" xlink:href="#a"/><linearGradient id="bo" x1="-218.635" y1="115.324" x2="175.064" y2="-90.52" xlink:href="#a"/><linearGradient id="bp" x1="-31.549" y1="17.567" x2="45.37" y2="-22.795" xlink:href="#a"/><linearGradient id="bq" x1="-25.936" y1="14.129" x2="34.31" y2="-17.5" xlink:href="#a"/><linearGradient id="br" x1="-20.544" y1="11.792" x2="20.504" y2="-9.747" xlink:href="#a"/><linearGradient id="bs" x1="-20.493" y1="11.266" x2="15.888" y2="-7.825" xlink:href="#a"/><linearGradient id="bt" x1="-20.819" y1="11.938" x2="10.901" y2="-4.708" xlink:href="#a"/><linearGradient id="bu" x1="-22.035" y1="12.075" x2="8.618" y2="-4.01" xlink:href="#a"/><linearGradient id="bv" x1="-23.519" y1="12.851" x2="6.204" y2="-2.743" xlink:href="#a"/><linearGradient id="bw" x1="-24.546" y1="13.894" x2="5.715" y2="-1.987" xlink:href="#a"/><linearGradient id="bx" x1="-28.061" y1="15.24" x2="3.614" y2="-1.384" xlink:href="#a"/><linearGradient id="by" x1="-28.806" y1="16.125" x2="3.654" y2="-0.904" xlink:href="#a"/><linearGradient id="bz" x1="-30.887" y1="16.722" x2="2.072" y2="-0.575" xlink:href="#a"/><linearGradient id="ca" x1="-30.902" y1="17.227" x2="1.196" y2="0.385" xlink:href="#a"/><linearGradient id="cb" x1="-212.72" y1="112.676" x2="-11.868" y2="7.242" xlink:href="#a"/><linearGradient id="cc" x1="-159.214" y1="84.142" x2="156.905" y2="-81.902" xlink:href="#a"/><linearGradient id="cd" x1="-70.757" y1="38.132" x2="84.207" y2="-43.164" xlink:href="#a"/><linearGradient id="ce" x1="-34.459" y1="19.093" x2="66.688" y2="-33.98" xlink:href="#a"/><linearGradient id="cf" x1="-27.583" y1="14.987" x2="48.127" y2="-24.743" xlink:href="#a"/><linearGradient id="cg" x1="-20.631" y1="11.838" x2="28.407" y2="-13.893" xlink:href="#a"/><linearGradient id="ch" x1="-20.184" y1="11.103" x2="21.069" y2="-10.543" xlink:href="#a"/><linearGradient id="ci" x1="-19.691" y1="11.344" x2="14.063" y2="-6.366" xlink:href="#a"/><linearGradient id="cj" x1="-20.484" y1="11.26" x2="11.154" y2="-5.34" xlink:href="#a"/><linearGradient id="ck" x1="-20.946" y1="12.003" x2="8.849" y2="-3.631" xlink:href="#a"/><linearGradient id="cl" x1="-21.693" y1="11.897" x2="7.602" y2="-3.477" xlink:href="#a"/><linearGradient id="cm" x1="-21.95" y1="12.53" x2="6.824" y2="-2.568" xlink:href="#a"/><linearGradient id="cn" x1="-24.63" y1="13.436" x2="3.932" y2="-1.551" xlink:href="#a"/><linearGradient id="co" x1="-25.035" y1="14.147" x2="3.445" y2="-0.795" xlink:href="#a"/><linearGradient id="cp" x1="-25.913" y1="14.108" x2="1.787" y2="-0.425" xlink:href="#a"/><linearGradient id="cq" x1="-25.343" y1="14.31" x2="1.909" y2="0.011" xlink:href="#a"/><linearGradient id="cr" x1="-398.932" y1="210.102" x2="431.481" y2="-225.141" xlink:href="#a"/><linearGradient id="cs" x1="-59.335" y1="31.634" x2="90.931" y2="-47.181" xlink:href="#a"/><linearGradient id="ct" x1="-28.607" y1="15.51" x2="71.013" y2="-36.719" xlink:href="#a"/><linearGradient id="cu" x1="-20.76" y1="11.906" x2="39.314" y2="-19.618" xlink:href="#a"/><linearGradient id="cv" x1="-20.284" y1="11.157" x2="29.902" y2="-15.179" xlink:href="#a"/><linearGradient id="cw" x1="-19.378" y1="11.182" x2="17.962" y2="-8.414" xlink:href="#a"/><linearGradient id="cx" x1="-19.717" y1="10.859" x2="14.17" y2="-6.924" xlink:href="#a"/><linearGradient id="cy" x1="-19.836" y1="11.42" x2="10.9" y2="-4.706" xlink:href="#a"/><linearGradient id="cz" x1="-20.772" y1="11.411" x2="9.432" y2="-4.437" xlink:href="#a"/><linearGradient id="da" x1="-20.738" y1="11.892" x2="8.913" y2="-3.664" xlink:href="#a"/><linearGradient id="db" x1="-22.545" y1="12.34" x2="5.629" y2="-2.441" xlink:href="#a"/><linearGradient id="dc" x1="-22.802" y1="12.975" x2="4.701" y2="-1.454" xlink:href="#a"/><linearGradient id="dd" x1="-24.16" y1="13.193" x2="1.885" y2="-0.477" xlink:href="#a"/><linearGradient id="de" x1="-23.383" y1="13.279" x2="1.674" y2="0.134" xlink:href="#a"/><linearGradient id="df" x1="-23.343" y1="12.76" x2="0.381" y2="0.313" xlink:href="#a"/><linearGradient id="dg" x1="-22.981" y1="13.073" x2="0.349" y2="0.829" xlink:href="#a"/><linearGradient id="dh" x1="-208.232" y1="109.296" x2="289.227" y2="-150.587" xlink:href="#a"/><linearGradient id="di" x1="-84.241" y1="45.276" x2="142.248" y2="-73.729" xlink:href="#a"/><linearGradient id="dj" x1="-20.694" y1="11.875" x2="54.123" y2="-27.397" xlink:href="#a"/><linearGradient id="dk" x1="-19.695" y1="10.853" x2="40.21" y2="-20.599" xlink:href="#a"/><linearGradient id="dl" x1="-19.007" y1="10.985" x2="24.418" y2="-11.799" xlink:href="#a"/><linearGradient id="dm" x1="-19.6" y1="10.799" x2="18.474" y2="-9.183" xlink:href="#a"/><linearGradient id="dn" x1="-19.646" y1="11.321" x2="13.594" y2="-6.12" xlink:href="#a"/><linearGradient id="do" x1="-20.306" y1="11.167" x2="11.573" y2="-5.56" xlink:href="#a"/><linearGradient id="dp" x1="-20.799" y1="11.924" x2="10.914" y2="-4.714" xlink:href="#a"/><linearGradient id="dq" x1="-21.747" y1="11.924" x2="10.208" y2="-4.844" xlink:href="#a"/><linearGradient id="dr" x1="-21.955" y1="12.034" x2="8.071" y2="-3.723" xlink:href="#a"/><linearGradient id="ds" x1="-21.69" y1="12.393" x2="6.997" y2="-2.659" xlink:href="#a"/><linearGradient id="dt" x1="-23.117" y1="12.64" x2="3.334" y2="-1.237" xlink:href="#a"/><linearGradient id="du" x1="-22.851" y1="13.005" x2="2.459" y2="-0.278" xlink:href="#a"/><linearGradient id="dv" x1="-22.442" y1="12.289" x2="0.202" y2="0.406" xlink:href="#a"/><linearGradient id="dw" x1="-21.452" y1="12.267" x2="0.292" y2="0.859" xlink:href="#a"/><linearGradient id="dx" x1="-601.453" y1="317.033" x2="910.439" y2="-477.362" xlink:href="#a"/><linearGradient id="dy" x1="-61.144" y1="32.555" x2="141.504" y2="-73.647" xlink:href="#a"/><linearGradient id="dz" x1="-33.661" y1="18.681" x2="98.365" y2="-50.62" xlink:href="#a"/><linearGradient id="ea" x1="-20.411" y1="11.725" x2="75.052" y2="-38.38" xlink:href="#a"/><linearGradient id="eb" x1="-20.145" y1="11.082" x2="55.963" y2="-28.849" xlink:href="#a"/><linearGradient id="ec" x1="-18.989" y1="10.979" x2="33.456" y2="-16.547" xlink:href="#a"/><linearGradient id="ed" x1="-19.949" y1="10.977" x2="26.022" y2="-13.139" xlink:href="#a"/><linearGradient id="ee" x1="-20.129" y1="11.573" x2="17.374" y2="-8.102" xlink:href="#a"/><linearGradient id="ef" x1="-20.899" y1="11.477" x2="14.674" y2="-7.186" xlink:href="#a"/><linearGradient id="eg" x1="-21.217" y1="12.144" x2="13.14" y2="-5.882" xlink:href="#a"/><linearGradient id="eh" x1="-22.323" y1="12.221" x2="12.47" y2="-6.029" xlink:href="#a"/><linearGradient id="ei" x1="-23.207" y1="13.191" x2="12.827" y2="-5.719" xlink:href="#a"/><linearGradient id="ej" x1="-25.374" y1="13.83" x2="12.007" y2="-5.79" xlink:href="#a"/><linearGradient id="ek" x1="-23.272" y1="13.224" x2="9.948" y2="-4.208" xlink:href="#a"/><linearGradient id="el" x1="-22.63" y1="12.39" x2="5.681" y2="-2.469" xlink:href="#a"/><linearGradient id="em" x1="-22.433" y1="12.782" x2="4.509" y2="-1.353" xlink:href="#a"/><linearGradient id="en" x1="-22.934" y1="12.548" x2="0.954" y2="0.012" xlink:href="#a"/><linearGradient id="eo" x1="-248.003" y1="130.577" x2="493.387" y2="-258.243" xlink:href="#a"/><linearGradient id="ep" x1="-90.873" y1="48.694" x2="232.32" y2="-120.89" xlink:href="#a"/><linearGradient id="eq" x1="-25.532" y1="13.9" x2="96.921" y2="-50.308" xlink:href="#a"/><linearGradient id="er" x1="-19.784" y1="10.896" x2="77.808" y2="-40.327" xlink:href="#a"/><linearGradient id="es" x1="-19.867" y1="11.437" x2="46.572" y2="-23.424" xlink:href="#a"/><linearGradient id="et" x1="-20.519" y1="11.279" x2="36.159" y2="-18.461" xlink:href="#a"/><linearGradient id="eu" x1="-21.153" y1="12.113" x2="24.227" y2="-11.701" xlink:href="#a"/><linearGradient id="ev" x1="-22.175" y1="12.148" x2="19.795" y2="-9.874" xlink:href="#a"/><linearGradient id="ew" x1="-23.005" y1="13.087" x2="16.639" y2="-7.721" xlink:href="#a"/><linearGradient id="ex" x1="-23.648" y1="12.923" x2="15.275" y2="-7.504" xlink:href="#a"/><linearGradient id="ey" x1="-24.771" y1="14.012" x2="16.19" y2="-7.484" xlink:href="#a"/><linearGradient id="ez" x1="-26.015" y1="14.162" x2="15.636" y2="-7.692" xlink:href="#a"/><linearGradient id="fa" x1="-30.096" y1="16.802" x2="15.296" y2="-7.012" xlink:href="#a"/><linearGradient id="fb" x1="-25.431" y1="13.857" x2="8.594" y2="-3.997" xlink:href="#a"/><linearGradient id="fc" x1="-23.326" y1="13.249" x2="6.947" y2="-2.632" xlink:href="#a"/><linearGradient id="fd" x1="-23.42" y1="12.8" x2="2.989" y2="-1.056" xlink:href="#a"/><linearGradient id="fe" x1="-470.828" y1="248.388" x2="1041.125" y2="-546.006" xlink:href="#a"/><linearGradient id="ff" x1="-56.985" y1="30.429" x2="211.954" y2="-110.759" xlink:href="#a"/><linearGradient id="fg" x1="-29.254" y1="16.347" x2="139.029" y2="-71.865" xlink:href="#a"/><linearGradient id="fh" x1="-20.126" y1="11.569" x2="65.889" y2="-33.549" xlink:href="#a"/><linearGradient id="fi" x1="-21.77" y1="11.936" x2="52.142" y2="-26.849" xlink:href="#a"/><linearGradient id="fj" x1="-22.348" y1="12.74" x2="34.327" y2="-17.001" xlink:href="#a"/><linearGradient id="fk" x1="-23.754" y1="12.975" x2="28.383" y2="-14.379" xlink:href="#a"/><linearGradient id="fl" x1="-24.648" y1="13.948" x2="21.658" y2="-10.353" xlink:href="#a"/><linearGradient id="fm" x1="-25.968" y1="14.138" x2="19.593" y2="-9.768" xlink:href="#a"/><linearGradient id="fn" x1="-26.683" y1="15.016" x2="19.569" y2="-9.258" xlink:href="#a"/><linearGradient id="fo" x1="-28.161" y1="15.294" x2="19.755" y2="-9.857" xlink:href="#a"/><linearGradient id="fp" x1="-30.823" y1="17.184" x2="20.618" y2="-9.805" xlink:href="#a"/><linearGradient id="fq" x1="-34.792" y1="18.77" x2="19.74" y2="-9.846" xlink:href="#a"/><linearGradient id="fr" x1="-32.961" y1="17.809" x2="13.413" y2="-6.526" xlink:href="#a"/><linearGradient id="fs" x1="-28.887" y1="16.172" x2="10.482" y2="-4.488" xlink:href="#a"/><linearGradient id="ft" x1="-25.032" y1="13.648" x2="5.405" y2="-2.324" xlink:href="#a"/><linearGradient id="fu" x1="-23.764" y1="13.479" x2="4.145" y2="-1.162" xlink:href="#a"/><linearGradient id="fv" x1="-204.866" y1="107.813" x2="626.148" y2="-327.437" xlink:href="#a"/><linearGradient id="fw" x1="-79.596" y1="42.809" x2="334.715" y2="-174.747" xlink:href="#a"/><linearGradient id="fx" x1="-22.356" y1="12.252" x2="142.657" y2="-74.398" xlink:href="#a"/><linearGradient id="fy" x1="-18.406" y1="10.665" x2="106.74" y2="-54.965" xlink:href="#a"/><linearGradient id="fz" x1="-17.431" y1="10.167" x2="98.823" y2="-50.883" xlink:href="#a"/><linearGradient id="ga" x1="-20.912" y1="11.489" x2="76.68" y2="-39.738" xlink:href="#a"/><linearGradient id="gb" x1="-23.603" y1="13.399" x2="50.309" y2="-25.388" xlink:href="#a"/><linearGradient id="gc" x1="-25.094" y1="13.683" x2="41.146" y2="-21.083" xlink:href="#a"/><linearGradient id="gd" x1="-26.827" y1="15.091" x2="30.752" y2="-15.126" xlink:href="#a"/><linearGradient id="ge" x1="-28.574" y1="15.503" x2="27.011" y2="-13.658" xlink:href="#a"/><linearGradient id="gf" x1="-30.353" y1="16.933" x2="24.785" y2="-11.988" xlink:href="#a"/><linearGradient id="gg" x1="-31.64" y1="17.112" x2="24.596" y2="-12.392" xlink:href="#a"/><linearGradient id="gh" x1="-33.316" y1="18.492" x2="26.933" y2="-13.119" xlink:href="#a"/><linearGradient id="gi" x1="-36.347" y1="19.582" x2="26.887" y2="-13.595" xlink:href="#a"/><linearGradient id="gj" x1="-43.696" y1="23.937" x2="25.514" y2="-12.373" xlink:href="#a"/><linearGradient id="gk" x1="-46.765" y1="25.047" x2="22.233" y2="-11.152" xlink:href="#a"/><linearGradient id="gl" x1="-39.405" y1="21.688" x2="16.532" y2="-7.662" xlink:href="#a"/><linearGradient id="gm" x1="-3757.653" y1="2436.058" x2="3757.3" y2="-2434.679" xlink:href="#a"/><linearGradient id="gn" x1="-359.439" y1="188.145" x2="1166.41" y2="-606.249" xlink:href="#a"/><linearGradient id="go" x1="-43.696" y1="23.451" x2="291.115" y2="-152.308" xlink:href="#a"/><linearGradient id="gp" x1="-22.386" y1="12.747" x2="202.385" y2="-105.077" xlink:href="#a"/><linearGradient id="gq" x1="-16.948" y1="9.386" x2="117.365" y2="-60.945" xlink:href="#a"/><linearGradient id="gr" x1="-15.214" y1="8.493" x2="116.256" y2="-60.473" xlink:href="#a"/><linearGradient id="gs" x1="-22.288" y1="12.705" x2="75.304" y2="-38.493" xlink:href="#a"/><linearGradient id="gt" x1="-25.512" y1="13.902" x2="62.549" y2="-32.316" xlink:href="#a"/><linearGradient id="gu" x1="-28.354" y1="15.883" x2="44.943" y2="-22.559" xlink:href="#a"/><linearGradient id="gv" x1="-30.568" y1="16.556" x2="38.941" y2="-19.926" xlink:href="#a"/><linearGradient id="gw" x1="-33.147" y1="18.405" x2="32.484" y2="-16.032" xlink:href="#a"/><linearGradient id="gx" x1="-35.614" y1="19.202" x2="31.232" y2="-15.877" xlink:href="#a"/><linearGradient id="gy" x1="-36.504" y1="20.165" x2="32.913" y2="-16.256" xlink:href="#a"/><linearGradient id="gz" x1="-38.622" y1="20.781" x2="34.14" y2="-17.405" xlink:href="#a"/><linearGradient id="ha" x1="-44.761" y1="24.496" x2="35.227" y2="-17.47" xlink:href="#a"/><linearGradient id="hb" x1="-51.383" y1="27.459" x2="33.934" y2="-17.284" xlink:href="#a"/><linearGradient id="hc" x1="-56.234" y1="30.544" x2="26.764" y2="-13.043" xlink:href="#a"/><linearGradient id="hd" x1="-151.917" y1="79.677" x2="683.296" y2="-355.574" xlink:href="#a"/><linearGradient id="he" x1="-59.309" y1="32.181" x2="427.457" y2="-223.623" xlink:href="#a"/><linearGradient id="hf" x1="-13.545" y1="7.62" x2="203.579" y2="-106.31" xlink:href="#a"/><linearGradient id="hg" x1="-12.346" y1="7.495" x2="162.219" y2="-84.171" xlink:href="#a"/><linearGradient id="hh" x1="-15.35" y1="9.068" x2="112.327" y2="-57.937" xlink:href="#a"/><linearGradient id="hi" x1="-20.823" y1="11.429" x2="94.09" y2="-48.817" xlink:href="#a"/><linearGradient id="hj" x1="-28.255" y1="15.838" x2="69.759" y2="-35.59" xlink:href="#a"/><linearGradient id="hk" x1="-31.579" y1="17.086" x2="59.567" y2="-30.749" xlink:href="#a"/><linearGradient id="hl" x1="-36.361" y1="20.09" x2="47.512" y2="-23.916" xlink:href="#a"/><linearGradient id="hm" x1="-39.522" y1="21.244" x2="43.519" y2="-22.316" xlink:href="#a"/><linearGradient id="hn" x1="-42.516" y1="23.318" x2="41.626" y2="-20.826" xlink:href="#a"/><linearGradient id="ho" x1="-44.146" y1="23.678" x2="42.854" y2="-21.976" xlink:href="#a"/><linearGradient id="hp" x1="-46.797" y1="25.557" x2="46.499" y2="-23.375" xlink:href="#a"/><linearGradient id="hq" x1="-53.221" y1="28.428" x2="47.284" y2="-24.289" xlink:href="#a"/><linearGradient id="hr" x1="-65.561" y1="35.401" x2="42.838" y2="-21.458" xlink:href="#a"/><linearGradient id="hs" x1="-69.423" y1="36.946" x2="37.067" y2="-18.941" xlink:href="#a"/><linearGradient id="ht" x1="-4581.943" y1="1895.638" x2="4581.295" y2="-1894.366" xlink:href="#a"/><linearGradient id="hu" x1="-290.375" y1="152.182" x2="1235.505" y2="-642.213" xlink:href="#a"/><linearGradient id="hv" x1="-28.989" y1="15.768" x2="383.545" y2="-201.314" xlink:href="#a"/><linearGradient id="hw" x1="-9.165" y1="5.816" x2="285.803" y2="-148.782" xlink:href="#a"/><linearGradient id="hx" x1="-7.789" y1="4.601" x2="179.12" y2="-93.516" xlink:href="#a"/><linearGradient id="hy" x1="-9.373" y1="5.929" x2="154.564" y2="-80.071" xlink:href="#a"/><linearGradient id="hz" x1="-3.444" y1="2.824" x2="183.223" y2="-95.294" xlink:href="#a"/><linearGradient id="ia" x1="-10.446" y1="5.994" x2="143.916" y2="-75.009" xlink:href="#a"/><linearGradient id="ib" x1="-22.255" y1="12.686" x2="109.999" y2="-56.684" xlink:href="#a"/><linearGradient id="ic" x1="-28.682" y1="15.544" x2="97.173" y2="-50.413" xlink:href="#a"/><linearGradient id="id" x1="-38.602" y1="21.263" x2="76.804" y2="-39.279" xlink:href="#a"/><linearGradient id="ie" x1="-43.189" y1="23.154" x2="67.877" y2="-35.072" xlink:href="#a"/><linearGradient id="if" x1="-51.116" y1="27.827" x2="59.951" y2="-30.437" xlink:href="#a"/><linearGradient id="ig" x1="-53.826" y1="28.755" x2="57.766" y2="-29.797" xlink:href="#a"/><linearGradient id="ih" x1="-54.985" y1="29.859" x2="61.609" y2="-31.308" xlink:href="#a"/><linearGradient id="ii" x1="-56.521" y1="30.166" x2="62.255" y2="-32.15" xlink:href="#a"/><linearGradient id="ij" x1="-70.341" y1="37.909" x2="63.35" y2="-32.218" xlink:href="#a"/><linearGradient id="ik" x1="-81.181" y1="43.103" x2="59.686" y2="-30.801" xlink:href="#a"/><linearGradient id="il" x1="-148.949" y1="78.432" x2="855.475" y2="-447.008" xlink:href="#a"/><linearGradient id="im" x1="-47.807" y1="26.087" x2="540.027" y2="-282.232" xlink:href="#a"/><linearGradient id="in" x1="-3.644" y1="2.422" x2="183.507" y2="-95.681" xlink:href="#a"/><linearGradient id="io" x1="6.852" y1="-3.079" x2="243.02" y2="-126.841" xlink:href="#a"/><linearGradient id="ip" x1="-9.804" y1="6.153" x2="177.105" y2="-91.854" xlink:href="#a"/><linearGradient id="iq" x1="-18.02" y1="9.964" x2="157.901" y2="-82.307" xlink:href="#a"/><linearGradient id="ir" x1="-36.629" y1="20.221" x2="139.507" y2="-72.148" xlink:href="#a"/><linearGradient id="is" x1="-45.577" y1="24.446" x2="123.792" y2="-64.494" xlink:href="#a"/><linearGradient id="it" x1="-62.196" y1="33.656" x2="104.029" y2="-53.587" xlink:href="#a"/><linearGradient id="iu" x1="-70.113" y1="37.318" x2="97.292" y2="-50.561" xlink:href="#a"/><linearGradient id="iv" x1="-75.719" y1="40.761" x2="91.687" y2="-47.118" xlink:href="#a"/><linearGradient id="iw" x1="-80.787" y1="42.875" x2="97.91" y2="-50.829" xlink:href="#a"/><linearGradient id="ix" x1="-81.84" y1="43.932" x2="96.857" y2="-49.784" xlink:href="#a"/><linearGradient id="iy" x1="-94.184" y1="49.886" x2="97.248" y2="-50.468" xlink:href="#a"/><linearGradient id="iz" x1="-112.183" y1="59.899" x2="79.219" y2="-40.571" xlink:href="#a"/><linearGradient id="ja" x1="-473.047" y1="250.157" x2="2574.72" y2="-1355.035" xlink:href="#a"/><linearGradient id="jb" x1="-19.7" y1="10.824" x2="569.033" y2="-297.354" xlink:href="#a"/><linearGradient id="jc" x1="11.004" y1="-4.753" x2="296.425" y2="-154.267" xlink:href="#a"/><linearGradient id="jd" x1="-0.387" y1="0.716" x2="258.081" y2="-135.076" xlink:href="#a"/><linearGradient id="je" x1="-21.957" y1="12.514" x2="236.917" y2="-123.093" xlink:href="#a"/><linearGradient id="jf" x1="-35.794" y1="19.296" x2="225.245" y2="-117.691" xlink:href="#a"/><linearGradient id="jg" x1="-72.156" y1="38.906" x2="216.618" y2="-112.746" xlink:href="#a"/><linearGradient id="jh" x1="-89.181" y1="47.356" x2="199.593" y2="-104.328" xlink:href="#a"/><linearGradient id="ji" x1="-115.735" y1="61.598" x2="177.065" y2="-91.68" xlink:href="#a"/><linearGradient id="jj" x1="-121.608" y1="64.542" x2="170.153" y2="-89.075" xlink:href="#a"/><linearGradient id="jk" x1="-112.296" y1="59.839" x2="154.902" y2="-80.135" xlink:href="#a"/><linearGradient id="jl" x1="-113.378" y1="60.098" x2="150.221" y2="-78.435" xlink:href="#a"/><linearGradient id="jm" x1="-130.692" y1="69.763" x2="133.389" y2="-69.156" xlink:href="#a"/><linearGradient id="jn" x1="-140.677" y1="74.273" x2="116.011" y2="-60.316" xlink:href="#a"/><linearGradient id="jo" x1="-218.615" y1="115.361" x2="1706.551" y2="-895.989" xlink:href="#a"/><linearGradient id="jp" x1="-54.71" y1="29.63" x2="949.728" y2="-495.811" xlink:href="#a"/><linearGradient id="jq" x1="38.772" y1="-19.796" x2="525.745" y2="-274.855" xlink:href="#a"/><linearGradient id="jr" x1="2.844" y1="-0.477" x2="384.316" y2="-200.329" xlink:href="#a"/><linearGradient id="js" x1="-13.527" y1="7.622" x2="400.784" y2="-210.135" xlink:href="#a"/><linearGradient id="jt" x1="-71.827" y1="38.688" x2="515.708" y2="-269.49" xlink:href="#a"/><linearGradient id="ju" x1="-106.166" y1="56.146" x2="497.333" y2="-260.106" xlink:href="#a"/><linearGradient id="jv" x1="-175.968" y1="93.283" x2="441.39" y2="-230.433" xlink:href="#a"/><linearGradient id="jw" x1="-205.849" y1="107.981" x2="414.178" y2="-215.726" xlink:href="#a"/><linearGradient id="jx" x1="-191.165" y1="101.762" x2="314.34" y2="-164.652" xlink:href="#a"/><linearGradient id="jy" x1="-166.329" y1="87.834" x2="262.597" y2="-137.348" xlink:href="#a"/><linearGradient id="jz" x1="-149.158" y1="79.406" x2="207.462" y2="-108.025" xlink:href="#a"/><linearGradient id="ka" x1="-149.185" y1="78.951" x2="177.944" y2="-93.046" xlink:href="#a"/><linearGradient id="kb" x1="0.287" y1="0.363" x2="1526.175" y2="-794.059" xlink:href="#a"/><linearGradient id="kc" x1="63.131" y1="-32.158" x2="826.074" y2="-433.007" xlink:href="#a"/><linearGradient id="kd" x1="33.931" y1="-17.361" x2="772.011" y2="-406.167" xlink:href="#a"/><linearGradient id="ke" x1="-28.035" y1="15.785" x2="1008.844" y2="-530.56" xlink:href="#a"/><linearGradient id="kf" x1="-108.541" y1="58.201" x2="1493.517" y2="-793.264" xlink:href="#a"/><linearGradient id="kg" x1="-547.802" y1="286.864" x2="2900.336" y2="-1512.396" xlink:href="#a"/><linearGradient id="kh" x1="-719.414" y1="378.821" x2="2728.725" y2="-1434.38" xlink:href="#a"/><linearGradient id="ki" x1="-407.846" y1="214.691" x2="972.138" y2="-508.303" xlink:href="#a"/><linearGradient id="kj" x1="-313.972" y1="165.451" x2="659.191" y2="-345.77" xlink:href="#a"/><linearGradient id="kk" x1="-204.004" y1="108.159" x2="362.786" y2="-189.53" xlink:href="#a"/><linearGradient id="kl" x1="-164.767" y1="87.012" x2="264.16" y2="-138.169" xlink:href="#a"/><linearGradient id="km" x1="-423.557" y1="221.22" x2="1046.012" y2="-542.818" xlink:href="#a"/></defs><g transform="translate(-43.039 182.6)" opacity="0.3"><path d="M737.956,68.325l-.247-.138.247-.139Z" transform="translate(79.865)" fill="url(#a)"/><path d="M772.537,63.165l-1.3.742V62.415Z" transform="translate(83.793)" fill="url(#b)"/><path d="M730.444,118.914l-2.068,1.186v-2.38Z" transform="translate(78.911)" fill="url(#c)"/><path d="M785.589,109.516l-4.993-2.882,4.993-2.882Z" transform="translate(85.131)" fill="url(#d)"/><path d="M840.661,7.174l-.553.321v-.64Z" transform="translate(91.66)" fill="url(#e)"/><path d="M737.017,170.295l-5.925-3.421,5.925-3.421Z" transform="translate(79.479)" fill="url(#f)"/><path d="M769.023,159.61l-7.789,4.492V155.12Z" transform="translate(83.09)" fill="url(#g)"/><path d="M818.359,90.919l-6.573,3.8v-7.6Z" transform="translate(88.848)" fill="url(#h)"/><path d="M846.856,45.9l-4.316-2.483,4.316-2.5Z" transform="translate(92.229)" fill="url(#i)"/><path d="M725.873,108.349l-.626-.364.626-.357Z" transform="translate(78.457)" fill="url(#j)"/><path d="M719.453,213.677l-6.056-3.5,6.056-3.494Z" transform="translate(77.444)" fill="url(#k)"/><path d="M726.166,217.8l-8.793,5.074V212.732Z" transform="translate(78.081)" fill="url(#l)"/><path d="M768.439,202.731l-13.473-7.782,13.473-7.781Z" transform="translate(82.759)" fill="url(#m)"/><path d="M796.958,163.417,781.1,172.574V154.267Z" transform="translate(85.969)" fill="url(#n)"/><path d="M819.611,121.593l-12.059-6.959,12.054-6.959Z" transform="translate(88.766)" fill="url(#o)"/><path d="M893.084,31.989,885.9,36.146V27.84Z" transform="translate(97.464)" fill="url(#p)"/><path d="M938.315.486l-5.343-3.079,5.343-3.087Z" transform="translate(102.749)" fill="url(#q)"/><path d="M927.615-41.935l-.822.48v-.953Z" transform="translate(101.652)" fill="url(#r)"/><path d="M723.485,144.047l-1.819,1.049V143Z" transform="translate(78.122)" fill="url(#s)"/><path d="M706.977,254.556l-7.789,4.5v-9Z" transform="translate(75.912)" fill="url(#t)"/><path d="M713.368,267.818l-14.649-8.458,14.649-8.45Z" transform="translate(76.296)" fill="url(#u)"/><path d="M745.752,243.579l-17.7,10.213V233.359Z" transform="translate(79.914)" fill="url(#v)"/><path d="M797.446,177.971l-22.892-13.222,22.891-13.211Z" transform="translate(85.715)" fill="url(#w)"/><path d="M862.541,81.318l-14.732,8.5V72.8Z" transform="translate(93.651)" fill="url(#x)"/><path d="M894.336,56.221l-12.1-7,12.1-6.988Z" transform="translate(97.441)" fill="url(#y)"/><path d="M999.356-2.84l-9,5.19V-8.03Z" transform="translate(109.709)" fill="url(#z)"/><path d="M707.61,99.865l-.037-.022.037-.022Z" transform="translate(76.387)" fill="url(#aa)"/><path d="M679.623,324.455,666.718,317l12.9-7.446Z" transform="translate(72.466)" fill="url(#ab)"/><path d="M685.984,306.913l-17.111,9.877V297.035Z" transform="translate(72.974)" fill="url(#ac)"/><path d="M731.143,268.145,707.3,254.382l23.846-13.765Z" transform="translate(77.897)" fill="url(#ad)"/><path d="M776.782,207,750.447,222.2V191.79Z" transform="translate(83.133)" fill="url(#ae)"/><path d="M858.32,115.675l-25.781,14.892V100.789Z" transform="translate(92.736)" fill="url(#af)"/><path d="M876.881,91.64l-21.75-12.556,21.75-12.563Z" transform="translate(95.064)" fill="url(#ag)"/><path d="M949.881,33.109l-16.152,9.325V23.792Z" transform="translate(103.773)" fill="url(#ah)"/><path d="M996.036,28.808l-15.17-8.757,15.17-8.757Z" transform="translate(109.175)" fill="url(#ai)"/><path d="M1050.809-34.584l-8-4.608,8-4.614Z" transform="translate(138.249)" fill="url(#aj)"/><path d="M1027.139-86.643l-2.613,1.507v-3.021Z" transform="translate(138.249)" fill="url(#ak)"/><path d="M687.295,135.554l-1.179.677v-1.362Z" transform="translate(73.99)" fill="url(#al)"/><path d="M691.75,224.465l-4.7-2.708,4.7-2.708Z" transform="translate(74.316)" fill="url(#am)"/><path d="M642.457,361.883,632.3,356.009l10.161-5.867Z" transform="translate(68.309)" fill="url(#an)"/><path d="M648.943,366.607l-13.794,7.963V358.637Z" transform="translate(68.849)" fill="url(#ao)"/><path d="M656.113,331.3,633.46,318.217l22.653-13.087Z" transform="translate(69.168)" fill="url(#ap)"/><path d="M702,286.744,675.721,301.92V271.574Z" transform="translate(74.348)" fill="url(#aq)"/><path d="M797.016,212.659l-31.648-18.277,31.649-18.27Z" transform="translate(85.271)" fill="url(#ar)"/><path d="M879.691,155.934l-33.839,19.543V136.4Z" transform="translate(94.95)" fill="url(#as)"/><path d="M892.108,133.144l-31.43-18.153,31.43-18.146Z" transform="translate(96.505)" fill="url(#at)"/><path d="M946.22,47.027,920.743,61.738V32.309Z" transform="translate(103.07)" fill="url(#au)"/><path d="M963.107,43.068,940.135,29.806l22.972-13.262Z" transform="translate(105.124)" fill="url(#av)"/><path d="M1063.948,21.886l-21.2,12.25V9.643Z" transform="translate(138.249)" fill="url(#aw)"/><path d="M1129.524,17.431,1108.772,5.45l20.752-11.981Z" transform="translate(138.249)" fill="url(#ax)"/><path d="M1126.431-35.225l-13.742,7.934V-43.166Z" transform="translate(138.249)" fill="url(#ay)"/><path d="M1062.551-132.664l-1.965-1.135,1.965-1.128Z" transform="translate(138.249)" fill="url(#az)"/><path d="M664.126,272.819l-5.976,3.45v-6.9Z" transform="translate(71.056)" fill="url(#ba)"/><path d="M597.677,412.02l-10.787,6.231V405.789Z" transform="translate(63.078)" fill="url(#bb)"/><path d="M598.535,404.1l-19.3-11.144,19.3-11.144Z" transform="translate(62.638)" fill="url(#bc)"/><path d="M621.1,348.076,597.334,361.8V334.355Z" transform="translate(64.997)" fill="url(#bd)"/><path d="M708.287,286.779l-31.008-17.9,31.008-17.9Z" transform="translate(74.831)" fill="url(#be)"/><path d="M784.439,227.791,750.826,247.2V208.4Z" transform="translate(83.695)" fill="url(#bf)"/><path d="M916.954,198.952,879.97,177.6l36.984-21.354Z" transform="translate(99.252)" fill="url(#bg)"/><path d="M975.684,89.951l-34.145,19.711V70.232Z" transform="translate(106.295)" fill="url(#bh)"/><path d="M984.274,71.885l-32.333-18.67,32.333-18.671Z" transform="translate(107.359)" fill="url(#bi)"/><path d="M1031.71,19.855l-28.642,16.538V3.31Z" transform="translate(106.705)" fill="url(#bj)"/><path d="M1059.348,40.687l-27.783-16.035,27.783-16.043Z" transform="translate(138.249)" fill="url(#bk)"/><path d="M1211.012,10.72,1182.7,27.061V-5.621Z" transform="translate(138.249)" fill="url(#bl)"/><path d="M1170.8-72.987l-12.983-7.5,12.986-7.5Z" transform="translate(138.249)" fill="url(#bm)"/><path d="M1136.934-130.832l-6.558,3.785v-7.577Z" transform="translate(138.249)" fill="url(#bn)"/><path d="M626.6,243.572l-2.934-1.7,2.934-1.7Z" transform="translate(66.902)" fill="url(#bo)"/><path d="M545.065,467.275l-15.017-8.67,15.017-8.67Z" transform="translate(56.687)" fill="url(#bp)"/><path d="M557.716,428.194l-19.173,11.064V417.13Z" transform="translate(57.878)" fill="url(#bq)"/><path d="M621.5,336.167l-28.14-16.247,28.14-16.247Z" transform="translate(64.772)" fill="url(#br)"/><path d="M694.617,287.166l-31.75,18.328V268.833Z" transform="translate(73.177)" fill="url(#bs)"/><path d="M826.183,253.988l-36.416-21.021,36.416-21.021Z" transform="translate(88.512)" fill="url(#bt)"/><path d="M906.423,221.356,868.74,243.112V199.6Z" transform="translate(97.979)" fill="url(#bu)"/><path d="M992.346,172.516l-38.862,22.441V150.074Z" transform="translate(108.144)" fill="url(#bv)"/><path d="M1006.923,145.9l-38.171-22.034,38.171-22.037Z" transform="translate(109.893)" fill="url(#bw)"/><path d="M1061.081,43.264l-36.467,21.051v-42.1Z" transform="translate(138.249)" fill="url(#bx)"/><path d="M1062.442,42.981l-35.586-20.549,35.586-20.548Z" transform="translate(138.249)" fill="url(#by)"/><path d="M1133.3,31.29l-35.047,20.235V11.062Z" transform="translate(138.249)" fill="url(#bz)"/><path d="M1189.276,55.376,1153.29,34.6l35.987-20.775Z" transform="translate(138.249)" fill="url(#ca)"/><path d="M1170.746-175.962l-5.751-3.319,5.751-3.319Z" transform="translate(138.249)" fill="url(#cb)"/><path d="M586.584,311.033l-3.654,2.1v-4.215Z" transform="translate(62.246)" fill="url(#cc)"/><path d="M571.444,402.346l-7.454-4.309,7.454-4.3Z" transform="translate(60.254)" fill="url(#cd)"/><path d="M461.06,515.679l-11.42-6.6,11.42-6.587Z" transform="translate(47.184)" fill="url(#ce)"/><path d="M487.992,492.125l-15.257,8.808V483.317Z" transform="translate(50.026)" fill="url(#cf)"/><path d="M536.753,411.8,513.2,398.2l23.555-13.6Z" transform="translate(55.121)" fill="url(#cg)"/><path d="M605.662,339.48l-28,16.166V323.313Z" transform="translate(62.916)" fill="url(#ch)"/><path d="M738.723,303.463,704.5,283.7l34.221-19.752Z" transform="translate(78.258)" fill="url(#ci)"/><path d="M821.459,269.222l-36.51,21.089v-42.16Z" transform="translate(87.948)" fill="url(#cj)"/><path d="M924.816,291.249l-38.768-22.382,38.768-22.383Z" transform="translate(100.126)" fill="url(#ck)"/><path d="M981.166,285.382l-39.43,22.762V262.621Z" transform="translate(106.801)" fill="url(#cl)"/><path d="M999.261,255.863l-40.143-23.18,40.143-23.176Z" transform="translate(108.934)" fill="url(#cm)"/><path d="M1077.357,124.955l-40.442,23.351v-46.7Z" transform="translate(138.249)" fill="url(#cn)"/><path d="M1089.846,101.837l-40.558-23.423L1089.846,55Z" transform="translate(138.249)" fill="url(#co)"/><path d="M1134.255,26.086l-41.7,24.078V2.007Z" transform="translate(138.249)" fill="url(#cp)"/><path d="M1141.1,50.717l-42.385-24.472L1141.1,1.773Z" transform="translate(138.249)" fill="url(#cq)"/><path d="M538.3,295.714l-1.391-.808,1.391-.8Z" transform="translate(56.833)" fill="url(#cr)"/><path d="M510.039,461.505l-7.687,4.44v-8.88Z" transform="translate(53.135)" fill="url(#cs)"/><path d="M386.7,532.144l-11.6,6.7v-13.4Z" transform="translate(38.54)" fill="url(#ct)"/><path d="M455.586,480.908l-19.228-11.1,19.224-11.1Z" transform="translate(45.944)" fill="url(#cu)"/><path d="M513.1,416.766,490.08,430.058V403.483Z" transform="translate(52.387)" fill="url(#cv)"/><path d="M657.975,343.548,627.04,325.7l30.935-17.862Z" transform="translate(68.9)" fill="url(#cw)"/><path d="M741.312,311.95l-34.087,19.682V292.275Z" transform="translate(78.571)" fill="url(#cx)"/><path d="M854.1,326.7l-37.581-21.7L854.1,283.3Z" transform="translate(91.775)" fill="url(#cy)"/><path d="M913.756,313.683l-38.243,22.084V291.606Z" transform="translate(98.83)" fill="url(#cz)"/><path d="M978.715,389.266l-38.957-22.5,38.957-22.491Z" transform="translate(106.523)" fill="url(#da)"/><path d="M1057.274,252.78l-41,23.671V229.1Z" transform="translate(138.249)" fill="url(#db)"/><path d="M1080.588,214.347l-42-24.246,42-24.26Z" transform="translate(138.249)" fill="url(#dc)"/><path d="M1159.128,83.21l-44.35,25.6V57.61Z" transform="translate(138.249)" fill="url(#dd)"/><path d="M1164,73.836l-46.1-26.619L1164,20.591Z" transform="translate(138.249)" fill="url(#de)"/><path d="M1216.617,24.106l-48.689,28.111V-4.01Z" transform="translate(138.249)" fill="url(#df)"/><path d="M1240.884,59.962l-49.51-28.584L1240.885,2.8Z" transform="translate(138.249)" fill="url(#dg)"/><path d="M488.668,373.34l-2.322,1.347v-2.693Z" transform="translate(51.054)" fill="url(#dh)"/><path d="M469.131,458.045l-5.1-2.941,5.1-2.94Z" transform="translate(48.597)" fill="url(#di)"/><path d="M365.116,517.658l-15.439-8.909,15.439-8.912Z" transform="translate(35.705)" fill="url(#dj)"/><path d="M424.8,473.781l-19.282,11.13V462.659Z" transform="translate(42.344)" fill="url(#dk)"/><path d="M561.18,402.791l-26.6-15.359,26.6-15.358Z" transform="translate(57.778)" fill="url(#dl)"/><path d="M658.769,356.708l-30.338,17.514V339.2Z" transform="translate(69.028)" fill="url(#dm)"/><path d="M786.973,362.262l-34.75-20.06,34.749-20.068Z" transform="translate(83.942)" fill="url(#dn)"/><path d="M850.837,345.469,814.6,366.381V324.542Z" transform="translate(91.441)" fill="url(#do)"/><path d="M913.96,400.141l-36.423-21.029,36.423-21.035Z" transform="translate(98.916)" fill="url(#dp)"/><path d="M961.738,415.071l-36.147,20.868V394.2Z" transform="translate(104.587)" fill="url(#dq)"/><path d="M1038.873,406.5,1000.4,428.71V384.294Z" transform="translate(113.679)" fill="url(#dr)"/><path d="M1056.9,368.4l-40.266-23.248L1056.9,321.9Z" transform="translate(138.249)" fill="url(#ds)"/><path d="M1145.575,201.929l-43.669,25.221V176.715Z" transform="translate(138.249)" fill="url(#dt)"/><path d="M1169.967,163.572l-45.637-26.345,45.632-26.343Z" transform="translate(138.249)" fill="url(#du)"/><path d="M1242.092,43.715l-51.01,29.451v-58.9Z" transform="translate(138.249)" fill="url(#dv)"/><path d="M1241.029,50.23l-53.121-30.673,53.121-30.674Z" transform="translate(138.249)" fill="url(#dw)"/><path d="M444.4,357.017l-.764-.444.764-.437Z" transform="translate(46.075)" fill="url(#dx)"/><path d="M393.453,515.156l-5.7,3.3v-6.59Z" transform="translate(39.811)" fill="url(#dy)"/><path d="M344.182,550.654l-8.749-5.055,8.749-5.044Z" transform="translate(33.855)" fill="url(#dz)"/><path d="M273.169,535.114l-12.1-6.98,12.1-6.988Z" fill="url(#ea)"/><path d="M337.165,502.992l-15.177,8.763V494.228Z" transform="translate(32.473)" fill="url(#eb)"/><path d="M469.525,456.254,447.5,443.545l22.025-12.717Z" transform="translate(47.358)" fill="url(#ec)"/><path d="M560.511,413.935l-25.127,14.507V399.421Z" transform="translate(57.8)" fill="url(#ed)"/><path d="M720.543,400.694l-30.8-17.782,30.8-17.79Z" transform="translate(76.288)" fill="url(#ee)"/><path d="M791.179,382.236l-32.471,18.747v-37.5Z" transform="translate(84.544)" fill="url(#ef)"/><path d="M861.253,417.625l-33.619-19.413L861.255,378.8Z" transform="translate(92.778)" fill="url(#eg)"/><path d="M901.3,421.781l-33.2,19.176V402.608Z" transform="translate(97.528)" fill="url(#eh)"/><path d="M966.615,525.112,934.559,506.6l32.056-18.5Z" transform="translate(105.281)" fill="url(#ei)"/><path d="M1036.944,552.5l-30.9,17.841V534.67Z" transform="translate(138.249)" fill="url(#ej)"/><path d="M1056.059,520.912l-34.771-20.075,34.771-20.075Z" transform="translate(138.249)" fill="url(#ek)"/><path d="M1125.583,368.15l-40.8,23.548V344.6Z" transform="translate(138.249)" fill="url(#el)"/><path d="M1145.618,310.938l-42.873-24.756,42.873-24.756Z" transform="translate(138.249)" fill="url(#em)"/><path d="M1245.79,135.087,1197.436,163V107.173Z" transform="translate(138.249)" fill="url(#en)"/><path d="M391.26,432.982l-1.558.9v-1.8Z" transform="translate(39.899)" fill="url(#eo)"/><path d="M358.281,514.211l-3.574-2.067,3.574-2.06Z" transform="translate(35.931)" fill="url(#ep)"/><path d="M273.751,554.352l-9.433,5.444V548.9Z" fill="url(#eq)"/><path d="M253.181,531.46l-11.836,6.835V524.632Z" fill="url(#er)"/><path d="M388.231,494.126l-17.386-10.038,17.386-10.038Z" transform="translate(38.232)" fill="url(#es)"/><path d="M471.941,463.1l-20.38,11.77V451.341Z" transform="translate(47.767)" fill="url(#et)"/><path d="M631.982,447.475l-25.454-14.7,25.454-14.689Z" transform="translate(66.17)" fill="url(#eu)"/><path d="M720.081,427.255l-27.522,15.89v-31.78Z" transform="translate(76.407)" fill="url(#ev)"/><path d="M815.337,446.412,786.2,429.591l29.137-16.815Z" transform="translate(87.543)" fill="url(#ew)"/><path d="M855.015,439.935l-29.676,17.134V422.807Z" transform="translate(92.195)" fill="url(#ex)"/><path d="M895.995,517.375l-28.2-16.276,28.2-16.282Z" transform="translate(97.077)" fill="url(#ey)"/><path d="M946.525,549.809l-27.733,16.013V533.8Z" transform="translate(103.038)" fill="url(#ez)"/><path d="M1066.147,650.868,1040.7,636.179l25.447-14.7Z" transform="translate(138.249)" fill="url(#fa)"/><path d="M1132.115,525.63l-33.949,19.595v-39.2Z" transform="translate(138.249)" fill="url(#fb)"/><path d="M1144.173,478.324l-38.156-22.04,38.156-22.03Z" transform="translate(138.249)" fill="url(#fc)"/><path d="M1217.5,286.991l-43.738,25.251V261.733Z" transform="translate(138.249)" fill="url(#fd)"/><path d="M346.671,420.937l-.764-.444.764-.437Z" transform="translate(34.835)" fill="url(#fe)"/><path d="M279.182,563.036l-4.3,2.476v-4.957Z" fill="url(#ff)"/><path d="M232.246,580.469l-6.862-3.967,6.864-3.967Z" fill="url(#fg)"/><path d="M306.194,534.823l-13.429-7.76,13.429-7.752Z" transform="translate(29.029)" fill="url(#fh)"/><path d="M387.942,508.262l-15.628,9.019V499.236Z" transform="translate(38.346)" fill="url(#fi)"/><path d="M542.212,494.89l-20.381-11.762,20.381-11.77Z" transform="translate(55.983)" fill="url(#fj)"/><path d="M629.908,476.944l-22.155,12.793V464.152Z" transform="translate(66.129)" fill="url(#fk)"/><path d="M761.038,488.871l-24.945-14.4,24.945-14.4Z" transform="translate(81.35)" fill="url(#fl)"/><path d="M812.834,475.513l-25.353,14.631V460.869Z" transform="translate(87.412)" fill="url(#fm)"/><path d="M849.214,518.1l-24.974-14.42,24.974-14.412Z" transform="translate(91.698)" fill="url(#fn)"/><path d="M879.5,541.323l-24.107,13.91V527.406Z" transform="translate(95.285)" fill="url(#fo)"/><path d="M964.694,654.778l-22.455-12.963,22.455-12.969Z" transform="translate(105.324)" fill="url(#fp)"/><path d="M1041.748,682.9l-21.182,12.228V670.668Z" transform="translate(138.249)" fill="url(#fq)"/><path d="M1144.359,656.431l-24.908,14.375V642.047Z" transform="translate(138.249)" fill="url(#fr)"/><path d="M1161.158,616.855l-29.341-16.937,29.341-16.938Z" transform="translate(138.249)" fill="url(#fs)"/><path d="M1215.094,460.447l-37.951,21.91V438.538Z" transform="translate(138.249)" fill="url(#ft)"/><path d="M1226.589,397.95l-41.388-23.9,41.388-23.9Z" transform="translate(138.249)" fill="url(#fu)"/><path d="M289.146,494.047l-1.39.8v-1.608Z" transform="translate(28.161)" fill="url(#fv)"/><path d="M248.4,566.279l-2.788-1.608,2.788-1.609Z" fill="url(#fw)"/><path d="M176.451,588.119l-7,4.039v-8.077Z" fill="url(#fx)"/><path d="M186.216,570.308l-9.23-5.335,9.23-5.329Z" fill="url(#fy)"/><path d="M208.125,597.821l-9.936-5.728,9.936-5.736Z" fill="url(#fz)"/><path d="M291.722,564.935l-11.836,6.835V558.108Z" transform="translate(27.495)" fill="url(#ga)"/><path d="M448.791,544.037l-15.628-9.026,15.628-9.018Z" transform="translate(45.433)" fill="url(#gb)"/><path d="M534.734,527.807,517.3,537.873V517.742Z" transform="translate(55.315)" fill="url(#gc)"/><path d="M679.594,535.565l-20.061-11.581L679.594,512.4Z" transform="translate(72.064)" fill="url(#gd)"/><path d="M749.441,524.181l-20.781,12v-24Z" transform="translate(80.194)" fill="url(#ge)"/><path d="M816.6,539.782l-20.949-12.1,20.949-12.1Z" transform="translate(88.041)" fill="url(#gf)"/><path d="M838.39,544.8l-20.54,11.864V532.945Z" transform="translate(90.607)" fill="url(#gg)"/><path d="M880.775,642.209,861.6,631.14l19.172-11.071Z" transform="translate(95.613)" fill="url(#gh)"/><path d="M939.814,684.272,921.547,694.82v-21.1Z" transform="translate(102.537)" fill="url(#gi)"/><path d="M1078.084,767.689l-16.69-9.637,16.69-9.638Z" transform="translate(138.249)" fill="url(#gj)"/><path d="M1154.716,773.1l-16.741,9.667V763.437Z" transform="translate(138.249)" fill="url(#gk)"/><path d="M1176.517,733.042l-20.65-11.923,20.65-11.923Z" transform="translate(138.249)" fill="url(#gl)"/><path d="M261.684,373.486l-.015.007v-.014Z" fill="url(#gm)"/><path d="M258.436,472.974l-.757-.437.757-.444Z" fill="url(#gn)"/><path d="M177.925,609.424l-3.45,1.988V607.43Z" fill="url(#go)"/><path d="M137.913,621.15l-5.139-2.97,5.139-2.97Z" fill="url(#gp)"/><path d="M163.461,588.249l-8.6,4.979v-9.951Z" fill="url(#gq)"/><path d="M180.763,643.767l-8.786,5.073V638.692Z" fill="url(#gr)"/><path d="M337.733,604.132,325.9,597.3l11.836-6.835Z" transform="translate(32.836)" fill="url(#gs)"/><path d="M423.949,584.46l-13.117,7.577V576.894Z" transform="translate(42.742)" fill="url(#gt)"/><path d="M579.127,583.024l-15.759-9.106,15.759-9.1Z" transform="translate(60.603)" fill="url(#gu)"/><path d="M657.859,573.583l-16.618,9.593V563.992Z" transform="translate(69.723)" fill="url(#gv)"/><path d="M768.12,583.787l-17.6-10.161,17.6-10.162Z" transform="translate(82.528)" fill="url(#gw)"/><path d="M806.115,574.762l-17.28,9.971V564.782Z" transform="translate(86.974)" fill="url(#gx)"/><path d="M827.662,629.39l-16.64-9.608,16.64-9.608Z" transform="translate(89.513)" fill="url(#gy)"/><path d="M859.514,670.407l-15.875,9.164V661.243Z" transform="translate(93.255)" fill="url(#gz)"/><path d="M972.031,783.433l-14.441-8.342,14.441-8.335Z" transform="translate(106.4)" fill="url(#ha)"/><path d="M1053.715,808.553l-13.539,7.817V800.728Z" transform="translate(138.249)" fill="url(#hb)"/><path d="M1195.362,845.515l-13.917-8.029,13.917-8.028Z" transform="translate(138.249)" fill="url(#hc)"/><path d="M213.118,537.034l-1.383.808v-1.608Z" fill="url(#hd)"/><path d="M166.737,615.334l-2.373-1.368,2.373-1.368Z" fill="url(#he)"/><path d="M91.749,641.64l-5.32,3.072v-6.143Z" fill="url(#hf)"/><path d="M99.72,630.9,93.1,627.075l6.617-3.814Z" fill="url(#hg)"/><path d="M214.268,686.885l-9.047-5.219,9.047-5.226Z" fill="url(#hh)"/><path d="M295.122,659.735l-10.052,5.809V653.927Z" transform="translate(28.054)" fill="url(#hi)"/><path d="M453.2,638.678l-11.785-6.809,11.785-6.8Z" transform="translate(46.244)" fill="url(#hj)"/><path d="M538.012,625.517l-12.673,7.316V618.2Z" transform="translate(56.028)" fill="url(#hk)"/><path d="M679.958,631.078l-13.772-7.956,13.772-7.948Z" transform="translate(72.457)" fill="url(#hl)"/><path d="M742.258,623.147l-13.91,8.028V615.108Z" transform="translate(79.694)" fill="url(#hm)"/><path d="M798.269,639.363l-13.728-7.927,13.728-7.927Z" transform="translate(86.215)" fill="url(#hn)"/><path d="M813.031,658.928l-13.277,7.665v-15.33Z" transform="translate(87.951)" fill="url(#ho)"/><path d="M873.663,775.66l-12.381-7.148,12.381-7.155Z" transform="translate(95.03)" fill="url(#hp)"/><path d="M945.63,823.1l-11.493,6.638V816.465Z" transform="translate(103.415)" fill="url(#hq)"/><path d="M1104.39,890.339l-10.656-6.158,10.656-6.151Z" transform="translate(138.249)" fill="url(#hr)"/><path d="M1181.371,894.291l-10.847,6.263V888.031Z" transform="translate(138.249)" fill="url(#hs)"/><path d="M185.59,370.342l-.015.014v-.022Z" fill="url(#ht)"/><path d="M197.046,489.635l-.757-.444.757-.437Z" fill="url(#hu)"/><path d="M114.707,663.165l-2.8,1.609V661.55Z" fill="url(#hv)"/><path d="M66.288,683.559l-3.916-2.264,3.916-2.263Z" fill="url(#hw)"/><path d="M72.883,663.048l-6.18,3.567v-7.133Z" fill="url(#hx)"/><path d="M106.737,677.082l-7.046-4.069,7.046-4.069Z" fill="url(#hy)"/><path d="M105.769,777.821l-6.188-3.559,6.187-3.574Z" fill="url(#hz)"/><path d="M172.342,757.259l-7.483,4.324v-8.64Z" fill="url(#ia)"/><path d="M311.442,722.561l-8.734-5.037,8.734-5.052Z" transform="translate(30.066)" fill="url(#ib)"/><path d="M392.222,699.748l-9.178,5.3V694.437Z" transform="translate(39.382)" fill="url(#ic)"/><path d="M551.318,683.135l-10.009-5.78,10.009-5.78Z" transform="translate(57.754)" fill="url(#id)"/><path d="M631.793,673.6l-10.4,6.012v-12.02Z" transform="translate(67.058)" fill="url(#ie)"/><path d="M747.822,679.1l-10.4-6.012,10.4-6Z" transform="translate(80.511)" fill="url(#if)"/><path d="M781.935,677.832l-10.351,5.976V671.855Z" transform="translate(84.469)" fill="url(#ig)"/><path d="M807.412,748.633l-9.907-5.714,9.907-5.728Z" transform="translate(87.442)" fill="url(#ih)"/><path d="M847.926,804.688,838.2,810.3V799.069Z" transform="translate(92.144)" fill="url(#ii)"/><path d="M994.792,917.831l-8.64-4.993,8.64-4.987Z" transform="translate(109.19)" fill="url(#ij)"/><path d="M1086.877,939.835l-8.2,4.738V935.1Z" transform="translate(138.249)" fill="url(#ik)"/><path d="M165.005,545.58l-1.15.663v-1.332Z" fill="url(#il)"/><path d="M125.785,654.022l-1.965-1.135,1.965-1.135Z" fill="url(#im)"/><path d="M77.906,729.213l-6.172,3.567v-7.134Z" fill="url(#in)"/><path d="M72.926,849.49l-4.891,2.831v-5.655Z" fill="url(#io)"/><path d="M190.874,829.691l-6.18-3.567,6.18-3.574Z" fill="url(#ip)"/><path d="M257.025,807.956l-6.566,3.792v-7.585Z" fill="url(#iq)"/><path d="M399.392,767.915l-6.558-3.792,6.558-3.785Z" transform="translate(40.427)" fill="url(#ir)"/><path d="M482.445,745.205l-6.82,3.931v-7.869Z" transform="translate(50.007)" fill="url(#is)"/><path d="M639.341,730.093l-6.949-4.011,6.944-4.011Z" transform="translate(68.136)" fill="url(#it)"/><path d="M706.409,724.481l-6.9,3.982V720.5Z" transform="translate(75.893)" fill="url(#iu)"/><path d="M772.079,745.6l-6.9-3.982,6.9-3.982Z" transform="translate(83.485)" fill="url(#iv)"/><path d="M790.388,777.108l-6.464,3.734v-7.469Z" transform="translate(85.62)" fill="url(#iw)"/><path d="M875.193,901.723l-6.464-3.734,6.464-3.734Z" transform="translate(95.421)" fill="url(#ix)"/><path d="M959.089,952.246l-6.034,3.487v-6.974Z" transform="translate(105.128)" fill="url(#iy)"/><path d="M1140.45,1006.277l-6.035-3.487,6.035-3.479Z" transform="translate(138.249)" fill="url(#iz)"/><path d="M128.493,468.57l-.379-.218.379-.218Z" fill="url(#ja)"/><path d="M82.732,707.725l-1.962,1.136V706.59Z" fill="url(#jb)"/><path d="M98.625,918.18l-4.047-2.344,4.047-2.337Z" fill="url(#jc)"/><path d="M157.565,910.358,153.1,912.94v-5.154Z" fill="url(#jd)"/><path d="M274.16,885.658l-4.462-2.577,4.462-2.584Z" fill="url(#je)"/><path d="M340.676,859.177l-4.425,2.554v-5.109Z" transform="translate(33.827)" fill="url(#jf)"/><path d="M489.279,811.289l-4-2.308,4-2.307Z" transform="translate(51.002)" fill="url(#jg)"/><path d="M570.716,792.036l-4,2.315v-4.614Z" transform="translate(60.394)" fill="url(#jh)"/><path d="M702.784,784.809l-3.945-2.28,3.945-2.286Z" transform="translate(75.628)" fill="url(#ji)"/><path d="M741.494,792.533l-3.959,2.278v-4.556Z" transform="translate(80.092)" fill="url(#jj)"/><path d="M793.81,869.244l-4.323-2.5,4.323-2.5Z" transform="translate(86.109)" fill="url(#jk)"/><path d="M844.257,926.748l-4.382,2.526v-5.052Z" transform="translate(91.926)" fill="url(#jl)"/><path d="M1008.614,1029.2l-4.374-2.519,4.374-2.519Z" transform="translate(110.888)" fill="url(#jm)"/><path d="M1104.871,1049.325l-4.5,2.6v-5.2Z" transform="translate(138.249)" fill="url(#jn)"/><path d="M99.837,529.473l-.6.342v-.692Z" fill="url(#jo)"/><path d="M90.687,667.459l-1.15-.67,1.15-.662Z" fill="url(#jp)"/><path d="M71.311,982.911l-2.372,1.376v-2.744Z" fill="url(#jq)"/><path d="M184.745,980.954l-3.028-1.747,3.028-1.755Z" fill="url(#jr)"/><path d="M242.277,971.782l-2.788,1.608v-3.214Z" fill="url(#js)"/><path d="M359.351,932.847l-1.966-1.136,1.966-1.135Z" transform="translate(36.191)" fill="url(#jt)"/><path d="M426.768,904.336l-1.914,1.106v-2.213Z" transform="translate(43.957)" fill="url(#ju)"/><path d="M572.806,861.041l-1.871-1.078,1.871-1.084Z" transform="translate(60.773)" fill="url(#jv)"/><path d="M640.987,851.178l-1.863,1.084V850.1Z" transform="translate(68.623)" fill="url(#jw)"/><path d="M729.992,877.047l-2.285-1.317,2.285-1.31Z" transform="translate(78.848)" fill="url(#jx)"/><path d="M767.029,912.443l-2.693,1.551v-3.108Z" transform="translate(83.095)" fill="url(#jy)"/><path d="M880.033,1018.615l-3.239-1.871,3.239-1.863Z" transform="translate(96.094)" fill="url(#jz)"/><path d="M966.576,1062.47l-3.531,2.038v-4.069Z" transform="translate(106.061)" fill="url(#ka)"/><path d="M43.8,733.173l-.757.437v-.881Z" fill="url(#kb)"/><path d="M99.7,1039.345l-1.514-.88,1.514-.866Z" fill="url(#kc)"/><path d="M157.493,1038.8l-1.565.9v-1.8Z" fill="url(#kd)"/><path d="M270.717,1036.135l-1.114-.641,1.114-.64Z" fill="url(#ke)"/><path d="M326.808,1023.251l-.721.414v-.822Z" transform="translate(32.554)" fill="url(#kf)"/><path d="M444.718,981.019l-.335-.189.335-.2Z" transform="translate(46.145)" fill="url(#kg)"/><path d="M509.544,958.3l-.335.189V958.1Z" transform="translate(53.598)" fill="url(#kh)"/><path d="M634.981,937.986l-.837-.48.837-.488Z" transform="translate(67.991)" fill="url(#ki)"/><path d="M685.5,950.185l-1.187.677v-1.369Z" transform="translate(73.783)" fill="url(#kj)"/><path d="M784.41,1014.808l-2.038-1.179,2.038-1.172Z" transform="translate(85.126)" fill="url(#kk)"/><path d="M849.083,1057.359l-2.693,1.558v-3.108Z" transform="translate(92.548)" fill="url(#kl)"/><path d="M698.227,1061.552l-.786-.458.786-.458Z" transform="translate(75.269)" fill="url(#km)"/></g></svg>